<svg version="1.2" xmlns="http://www.w3.org/2000/svg" viewBox="0 0 512 512" width="512" height="512">
	<title>agile-svg</title>
	<style>
		tspan { white-space:pre } 
		.s0 { fill: #6c93f1 } 
		.t1 { font-size: 5px;fill: #000000;font-family: "' Helvetica  Neue'" } 
	</style>
	<path id="Layer" fill-rule="evenodd" class="s0" d="m352 184c4.4 0 8 3.6 8 8v112c0 4.4-3.6 8-8 8h-192c-4.4 0-8-3.6-8-8v-112c0-4.4 3.6-8 8-8zm-64 80c0-4.4-3.6-8-8-8h-48c-4.4 0-8 3.6-8 8 0 4.4 3.6 8 8 8h48c4.4 0 8-3.6 8-8zm24-32c0-4.4-3.6-8-8-8h-96c-4.4 0-8 3.6-8 8 0 4.4 3.6 8 8 8h96c4.4 0 8-3.6 8-8z"/>
	<path id="Layer" fill-rule="evenodd" class="s0" d="m35.6 233.3l-35.6 23.7q0-0.5 0-1c0-68.4 26.6-132.7 75-181 43.6-43.7 100.3-69.6 161.2-74.3l26.2 39.3-27.5 41.3c-87.1 10.4-154.9 84.8-154.9 174.7q0 0.5 0 1.1l-35.6-23.8c-2.6-1.7-6.1-1.7-8.8 0zm11.8-33.9q1.2 0.4 2.3 0.4c3.4 0 6.6-2.2 7.7-5.6 20.4-65.4 71.6-116.6 137-136.9 4.2-1.3 6.6-5.8 5.2-10-1.3-4.2-5.7-6.6-10-5.3-70.4 21.9-125.5 77-147.5 147.4-1.3 4.2 1 8.7 5.3 10z"/>
	<path id="Layer" fill-rule="evenodd" class="s0" d="m278.7 35.6l-23.7-35.6q0.5 0 1 0c68.4 0 132.7 26.6 181 75 43.7 43.6 69.6 100.3 74.3 161.2l-39.3 26.2-41.3-27.5c-10.4-87.1-84.8-154.9-174.7-154.9q-0.5 0-1.1 0l23.8-35.6c1.8-2.6 1.8-6.1 0-8.8zm33.7 11.7c-1.3 4.2 1 8.7 5.2 10 65.4 20.4 116.6 71.5 137 136.9 1.1 3.4 4.2 5.6 7.6 5.6q1.2 0 2.4-0.4c4.2-1.3 6.6-5.8 5.3-10-22-70.4-77.1-125.5-147.5-147.3-4.2-1.4-8.7 1-10 5.2z"/>
	<path id="Layer" fill-rule="evenodd" class="s0" d="m233.3 476.4l23.7 35.6q-0.5 0-1 0c-68.4 0-132.7-26.6-181-75-43.7-43.6-69.6-100.3-74.3-161.2l39.3-26.2 41.3 27.5c10.4 87.1 84.8 154.9 174.7 154.9q0.5 0 1.1 0l-23.8 35.6c-1.7 2.7-1.7 6.2 0 8.8zm-33.6-11.7c1.3-4.2-1.1-8.7-5.3-10-65.6-20.4-116.8-71.7-137.1-137.3-1.3-4.2-5.8-6.6-10-5.3-4.3 1.3-6.6 5.8-5.3 10 21.8 70.7 77 125.9 147.6 147.9q1.2 0.3 2.4 0.3c3.4 0 6.6-2.2 7.6-5.6z"/>
	<path id="Layer" fill-rule="evenodd" class="s0" d="m512 256c0 68.4-26.6 132.7-75 181-43.6 43.7-100.3 69.6-161.2 74.3l-26.2-39.3 27.5-41.3c87.1-10.4 154.9-84.8 154.9-174.7q0-0.5 0-1.1l35.6 23.8c1.3 0.8 2.8 1.3 4.4 1.3 1.5 0 3.1-0.4 4.4-1.3l35.6-23.7q0 0.5 0 1zm-47.3 56.1c-4.2-1.3-8.7 1.1-10 5.3-20.3 65.6-71.5 116.9-137.1 137.3-4.2 1.3-6.6 5.8-5.2 10 1 3.4 4.2 5.6 7.6 5.6q1.2 0 2.4-0.3c70.6-22 125.8-77.2 147.6-147.9 1.3-4.2-1-8.7-5.3-10z"/>
	<text id="Created by Edy Subiyanto" style="transform: matrix(1,0,0,1,0,527)" >
		<tspan x="0" y="0" class="t1">Created by Edy Subiyanto
</tspan>
	</text>
	<text id="from the Noun Project" style="transform: matrix(1,0,0,1,0,532)" >
		<tspan x="0" y="0" class="t1">from the Noun Project
</tspan>
	</text>
</svg>