<svg version="1.2" xmlns="http://www.w3.org/2000/svg" viewBox="0 0 481 481" width="481" height="481">
	<title>code-section-svg</title>
	<style>
		.s0 { fill: #fff } 
	</style>
	<g id="Layer">
		<path id="Layer" fill-rule="evenodd" class="s0" d="m480 240c0 132.7-107.4 240-240 240-132.7 0-240-107.4-240-240 0-132.7 107.4-240 240-240 132.7 0 240 107.4 240 240zm-21.5-10c-5.6-18.8-26.7-37.1-59.9-51.5-16.2-7.1-34.6-13-54.5-17.5 3.4 22 5.4 45.2 5.8 69zm-135.3-73.2c-23.1-3.9-47.7-6.2-73.2-6.7v79.9h79.9c-0.5-25.4-2.8-50.1-6.7-73.2zm-4.2-20.9c-4.5-19.9-10.4-38.3-17.4-54.5-14.5-33.2-32.8-54.3-51.6-59.9v108.6c23.8 0.4 47 2.4 69 5.8zm-140.5-54.5c-7.1 16.2-13 34.6-17.5 54.5 22-3.4 45.2-5.4 69-5.8v-108.6c-18.8 5.6-37.1 26.7-51.5 59.9zm-21.6 75.4c-4 23.1-6.3 47.8-6.8 73.2h79.9v-79.9c-25.4 0.5-50.1 2.8-73.1 6.7zm-21 4.2c-19.9 4.5-38.3 10.4-54.5 17.5-33.2 14.4-54.3 32.7-59.9 51.5h108.6c0.4-23.8 2.4-47 5.8-69zm-114.4 89c5.6 18.8 26.7 37.1 59.9 51.5 16.2 7.1 34.6 13 54.5 17.5-3.4-22-5.4-45.2-5.8-69zm135.3 73.2c23.1 3.9 47.8 6.2 73.2 6.7v-79.9h-79.9c0.5 25.4 2.8 50.1 6.7 73.2zm4.2 20.9c4.5 19.9 10.4 38.3 17.5 54.5 14.4 33.2 32.7 54.3 51.5 59.9v-108.6c-23.8-0.4-47-2.4-69-5.8zm140.5 54.5c7.1-16.2 13-34.6 17.5-54.5-22 3.4-45.2 5.4-69 5.8v108.6c18.8-5.6 37.1-26.7 51.5-59.9zm21.6-75.5c4-23 6.3-47.7 6.8-73.1h-79.9v79.9c25.4-0.5 50.1-2.8 73.1-6.8zm21-4.1c19.9-4.5 38.3-10.4 54.5-17.5 33.2-14.4 54.3-32.7 59.9-51.5h-108.6c-0.4 23.8-2.4 47-5.8 69zm-53.4-293.1c26.3 29.1 41.7 75.4 49.6 113.8 38.4 7.9 84.7 23.3 113.8 49.6-19.1-80.7-82.7-144.3-163.4-163.4zm-264.8 163.4c29.1-26.3 75.4-41.7 113.8-49.6 7.9-38.3 23.3-84.7 49.6-113.8-80.7 19.1-144.3 82.7-163.4 163.4zm163.4 264.8c-26.3-29.1-41.7-75.4-49.6-113.8-38.4-7.9-84.7-23.3-113.8-49.6 19.1 80.7 82.7 144.3 163.4 163.4zm264.8-163.4c-29.1 26.3-75.4 41.7-113.8 49.6-7.9 38.4-23.3 84.7-49.6 113.8 80.7-19.1 144.3-82.7 163.4-163.4z"/>
	</g>
</svg>