<svg version="1.2" xmlns="http://www.w3.org/2000/svg" viewBox="0 0 60 60" width="100" height="100">
	<title>customization-svg</title>
	<defs>
		<clipPath clipPathUnits="userSpaceOnUse" id="cp1">
			<path d="m-2-2h64v64h-64z"/>
		</clipPath>
	</defs>
	<style>
		.s0 { fill: #fff } 
	</style>
	<g id="Clip-Path" clip-path="url(#cp1)">
		<g id="Layer">
			<path id="Layer" fill-rule="evenodd" class="s0" d="m46.9 11.4l1.7 1.7c0.4 0.4 1.1 0.6 1.6 0.4l2.8-0.9c0.6-0.2 1.2-0.2 1.7 0 0.5 0.2 1 0.6 1.3 1 1.8 3 3.2 6.2 3.9 9.6 0.2 0.6 0.1 1.1-0.1 1.6-0.3 0.5-0.7 0.9-1.2 1.2l-2.7 1.3c-0.4 0.3-0.9 0.9-0.9 1.5v2.4c0 0.6 0.5 1.2 0.9 1.5l2.7 1.3c0.5 0.2 0.9 0.6 1.2 1.2 0.2 0.5 0.3 1 0.1 1.6-0.7 3.4-2.1 6.6-3.9 9.6-0.3 0.4-0.8 0.8-1.3 1-0.5 0.2-1.1 0.2-1.7 0l-2.8-0.9c-0.5-0.2-1.2 0-1.6 0.4l-1.7 1.7c-0.4 0.4-0.6 1.1-0.4 1.6l0.9 2.8c0.2 0.6 0.2 1.2 0 1.7-0.2 0.5-0.6 1-1 1.3-3 1.8-6.2 3.2-9.6 3.9-0.6 0.2-1.1 0.1-1.6-0.1-0.6-0.3-1-0.7-1.2-1.2l-1.3-2.7c-0.3-0.4-0.9-0.9-1.5-0.9h-2.4c-0.6 0-1.2 0.5-1.5 0.9l-1.3 2.7c-0.2 0.5-0.7 0.9-1.2 1.2-0.5 0.2-1 0.3-1.6 0.1-3.4-0.7-6.6-2.1-9.6-3.9-0.4-0.3-0.8-0.8-1-1.3-0.2-0.5-0.2-1.1 0-1.7l0.9-2.8c0.2-0.5 0-1.2-0.4-1.6l-1.7-1.7c-0.4-0.4-1.1-0.6-1.6-0.4l-2.9 0.9c-0.5 0.2-1.1 0.2-1.6 0-0.5-0.2-1-0.6-1.3-1-1.8-3-3.2-6.2-3.9-9.6-0.2-0.6-0.1-1.1 0.1-1.6 0.3-0.6 0.7-1 1.2-1.2l2.6-1.3c0.5-0.3 0.9-0.9 0.9-1.5v-2.4c0-0.6-0.4-1.2-0.9-1.5l-2.6-1.3c-0.5-0.3-0.9-0.7-1.2-1.2-0.2-0.5-0.3-1-0.1-1.6 0.7-3.4 2.1-6.6 3.9-9.6 0.3-0.4 0.8-0.8 1.3-1 0.5-0.2 1.1-0.2 1.6 0l2.9 0.9c0.5 0.2 1.2 0 1.6-0.4l1.7-1.7c0.4-0.4 0.6-1.1 0.4-1.6l-0.9-2.9c-0.2-0.5-0.2-1.1 0-1.6 0.2-0.5 0.6-1 1-1.3 3-1.8 6.2-3.2 9.6-3.9 0.6-0.2 1.1-0.1 1.6 0.1 0.5 0.3 1 0.7 1.2 1.2l1.3 2.6c0.3 0.5 0.9 0.9 1.5 0.9h2.4c0.6 0 1.2-0.4 1.5-0.9l1.3-2.6c0.2-0.5 0.6-0.9 1.2-1.2 0.5-0.2 1-0.3 1.6-0.1 3.4 0.7 6.6 2.1 9.6 3.9 0.4 0.3 0.8 0.8 1 1.3 0.2 0.5 0.2 1.1 0 1.6l-0.9 2.9c-0.2 0.5 0 1.2 0.4 1.6zm-6.2-0.3l1-2.9c0.2-0.5-0.1-1.1-0.6-1.4-0.5-0.3-2-0.9-2.6-1.1-0.5-0.1-1.1 0.1-1.4 0.6l-1.4 2.7c-0.2 0.5-0.8 0.9-1.4 0.9h-8.6c-0.6 0-1.2-0.4-1.5-0.9l-1.3-2.7c-0.3-0.5-0.9-0.7-1.4-0.6-0.6 0.2-2.1 0.8-2.6 1.1-0.5 0.3-0.8 0.9-0.6 1.4l1 2.9c0.1 0.5 0 1.3-0.4 1.7l-6.1 6.1c-0.4 0.4-1.2 0.5-1.7 0.4l-2.9-1c-0.5-0.2-1.1 0.1-1.4 0.6-0.3 0.5-0.9 2-1.1 2.6-0.1 0.5 0.1 1.1 0.6 1.4l2.7 1.3c0.5 0.3 0.9 0.9 0.9 1.5v8.6c0 0.6-0.4 1.2-0.9 1.4l-3.6 1.8c0.5 1.6 1.1 3.1 1.4 3.6 0.3 0.5 0.9 0.8 1.4 0.6l2.9-1c0.5-0.1 1.3 0 1.7 0.4l6.1 6.1c0.4 0.4 0.5 1.2 0.4 1.7l-1 2.9c-0.2 0.5 0.1 1.1 0.6 1.4 0.5 0.3 2 0.9 2.6 1.1 0.5 0.1 1.1-0.1 1.4-0.6l1.3-2.8c0.3-0.4 0.9-0.9 1.5-0.9h8.6c0.6 0 1.2 0.5 1.4 0.9l1.4 2.8c0.3 0.5 0.9 0.7 1.4 0.6 0.6-0.2 2.1-0.8 2.6-1.1 0.5-0.3 0.8-0.9 0.6-1.4l-1-2.9c-0.1-0.5 0-1.3 0.4-1.7l6.1-6.1c0.4-0.4 1.2-0.5 1.7-0.4l2.9 1c0.5 0.2 1.1-0.1 1.4-0.6 0.3-0.5 0.9-2 1.1-2.6 0.1-0.5-0.1-1.1-0.6-1.4l-2.8-1.4c-0.4-0.2-0.9-0.8-0.9-1.4v-8.6c0-0.6 0.5-1.2 0.9-1.5l2.8-1.3c0.5-0.3 0.7-0.9 0.6-1.4-0.2-0.6-0.8-2.1-1.1-2.6-0.3-0.5-0.9-0.8-1.4-0.6l-2.9 1c-0.5 0.1-1.3 0-1.7-0.4l-6.1-6.1c-0.4-0.4-0.5-1.2-0.4-1.7z"/>
			<path id="Layer" fill-rule="evenodd" class="s0" d="m30 44.2c-3.8 0-7.4-1.5-10.1-4.1-2.7-2.7-4.2-6.3-4.2-10.1 0-3.8 1.5-7.4 4.2-10.1 2.7-2.7 6.3-4.2 10.1-4.2 3.8 0 7.4 1.5 10.1 4.2 2.6 2.7 4.1 6.3 4.1 10.1 0 3.8-1.5 7.4-4.1 10.1-2.7 2.6-6.3 4.1-10.1 4.1zm6.5-7.7c1.8-1.7 2.7-4 2.7-6.5 0-2.5-0.9-4.8-2.7-6.5-1.7-1.8-4-2.8-6.5-2.8-2.4 0-4.8 1-6.5 2.8-1.8 1.7-2.8 4-2.8 6.5 0 2.5 1 4.8 2.8 6.5 1.7 1.8 4.1 2.7 6.5 2.7 2.5 0 4.8-0.9 6.5-2.7z"/>
		</g>
	</g>
</svg>