<svg version="1.2" xmlns="http://www.w3.org/2000/svg" viewBox="0 0 68 68" width="160" height="160">
	<title>detection-svg</title>
	<style>
		tspan { white-space:pre } 
		.s0 { fill: #6c93f1 } 
		.t1 { font-size: 5px;fill: #000000;font-family: "' Helvetica  Neue'" } 
	</style>
	<path id="Layer" class="s0" d="m4 4v13c0 0.6-0.4 1-1 1h-2c-0.6 0-1-0.4-1-1v-15c0-1.1 0.9-2 2-2h15c0.6 0 1 0.4 1 1v2c0 0.6-0.4 1-1 1zm60 0h-13c-0.6 0-1-0.4-1-1v-2c0-0.6 0.4-1 1-1h15c1.1 0 2 0.9 2 2v15c0 0.6-0.4 1-1 1h-2c-0.6 0-1-0.4-1-1zm-60 60h13c0.6 0 1 0.4 1 1v2c0 0.6-0.4 1-1 1h-15c-1.1 0-2-0.9-2-2v-15c0-0.6 0.4-1 1-1h2c0.6 0 1 0.4 1 1zm60 0v-13c0-0.6 0.4-1 1-1h2c0.6 0 1 0.4 1 1v15c0 1.1-0.9 2-2 2h-15c-0.6 0-1-0.4-1-1v-2c0-0.6 0.4-1 1-1zm-29-11h-2c-0.6 0-1-0.4-1-1v-36c0-0.6 0.4-1 1-1h2c0.6 0 1 0.4 1 1v36c0 0.6-0.4 1-1 1zm-10-10h-2c-0.6 0-1-0.4-1-1v-16c0-0.6 0.4-1 1-1h2c0.6 0 1 0.4 1 1v16c0 0.6-0.4 1-1 1zm20 0h-2c-0.6 0-1-0.4-1-1v-16c0-0.6 0.4-1 1-1h2c0.6 0 1 0.4 1 1v16c0 0.6-0.4 1-1 1zm-30-6h-2c-0.6 0-1-0.4-1-1v-4c0-0.6 0.4-1 1-1h2c0.6 0 1 0.4 1 1v4c0 0.6-0.4 1-1 1zm40 0h-2c-0.6 0-1-0.4-1-1v-4c0-0.6 0.4-1 1-1h2c0.6 0 1 0.4 1 1v4c0 0.6-0.4 1-1 1z"/>
	<text id="Created by Andrejs Kirma" style="transform: matrix(1,0,0,1,0,83)" >
		<tspan x="0" y="0" class="t1">Created by Andrejs Kirma
</tspan>
	</text>
	<text id="from the Noun Project" style="transform: matrix(1,0,0,1,0,88)" >
		<tspan x="0" y="0" class="t1">from the Noun Project
</tspan>
	</text>
</svg>