<svg version="1.2" xmlns="http://www.w3.org/2000/svg" viewBox="0 0 96 96" width="150" height="150">
	<title>development-svg</title>
	<style>
		tspan { white-space:pre } 
		.s0 { fill: #fff } 
		.t1 { font-size: 5px;fill: #000000;font-family: "' Helvetica  Neue'" } 
	</style>
	<g id="Layer">
		<g id="Layer">
			<g id="Layer">
				<path id="Layer" class="s0" d="m40.5 50.3h2.5c0.5 0 1-0.4 1-1v-7c0-0.5-0.4-1-1-1h-2.5c-0.5 0-1 0.4-1 1v7c0 0.5 0.4 1 1 1z"/>
				<path id="Layer" class="s0" d="m46.8 50.3h2.5c0.5 0 1-0.4 1-1v-10.3c0-0.5-0.4-1-1-1h-2.5c-0.5 0-1 0.4-1 1v10.3c0 0.5 0.5 1 1 1z"/>
				<path id="Layer" class="s0" d="m55.6 43.8h-2.5c-0.5 0-1 0.4-1 1v4.6c0 0.5 0.4 1 1 1h2.5c0.5 0 1-0.4 1-1v-4.6c0-0.6-0.5-1-1-1z"/>
				<path id="Layer" class="s0" d="m55.6 51.8h-15.2c-0.5 0-1 0.4-1 1v1.7c0 0.5 0.4 1 1 1h15.2c0.5 0 1-0.4 1-1v-1.7c0-0.6-0.5-1-1-1z"/>
				<path id="Layer" fill-rule="evenodd" class="s0" d="m95.3 48c0 4.8-3.9 8.8-8.8 8.8-3.8 0-7.2-2.4-8.4-6l-0.2-0.5h-11.4l-0.1 0.7c-0.4 2.9-1.6 5.6-3.3 8l-0.4 0.5 8.1 8.1 0.5-0.2c3.4-1.7 7.4-1 10.1 1.7 3.4 3.4 3.4 9.1 0 12.5-3.4 3.4-9.1 3.4-12.5 0-2.7-2.6-3.4-6.7-1.7-10.1l0.3-0.5-8.1-8.1-0.5 0.4q-3.8 2.6-8.1 3.3l-0.7 0.1v11.4l0.5 0.2c3.6 1.3 6 4.6 6 8.4 0 4.8-4 8.8-8.8 8.8-4.8 0-8.8-3.9-8.8-8.8 0-3.8 2.4-7.2 6-8.4l0.5-0.2v-11.4l-0.7-0.1c-2.9-0.5-5.6-1.6-8-3.4l-0.5-0.4-8.1 8.1 0.3 0.5c1.7 3.4 1 7.4-1.7 10.1-1.5 1.6-3.8 2.5-6.2 2.5-2.3 0-4.6-0.9-6.2-2.5-1.7-1.6-2.6-3.8-2.6-6.2 0-2.3 0.9-4.5 2.6-6.2 2.6-2.7 6.7-3.4 10.1-1.7l0.5 0.2 8.1-8-0.4-0.6c-1.7-2.4-2.8-5.1-3.3-8l-0.1-0.7h-11.4l-0.2 0.5c-1.3 3.6-4.6 6-8.4 6-4.8 0-8.8-4-8.8-8.8 0-4.8 3.9-8.8 8.8-8.8 3.8 0 7.2 2.4 8.4 6l0.2 0.5h11.5l0.1-0.7c0.4-2.9 1.6-5.6 3.3-8l0.4-0.5-8.1-8.1-0.5 0.2c-3.4 1.6-7.4 1-10.1-1.7-3.4-3.4-3.4-9.1 0-12.5 3.4-3.4 9-3.4 12.5 0 2.7 2.6 3.4 6.7 1.7 10.1l-0.3 0.5 8.1 8.2 0.5-0.4c2.4-1.7 5.1-2.8 8-3.3l0.7-0.1v-11.5l-0.5-0.2c-3.6-1.3-6-4.6-6-8.4 0-4.8 4-8.8 8.8-8.8 4.8 0 8.8 3.9 8.8 8.8 0 3.8-2.4 7.2-6 8.4l-0.5 0.2v11.5l0.7 0.1c2.9 0.5 5.6 1.6 8 3.3l0.7 0.2 8.1-8.1-0.3-0.5c-1.7-3.4-1-7.4 1.7-10.1 1.5-1.6 3.8-2.5 6.2-2.5 2.3 0 4.6 0.9 6.2 2.5 1.7 1.6 2.6 3.8 2.6 6.2 0 2.4-0.9 4.6-2.6 6.3-2.6 2.7-6.7 3.4-10.1 1.7l-0.5-0.2-8.1 8.1 0.4 0.6c1.7 2.4 2.8 5.1 3.3 8l0.1 0.7h11.4l0.2-0.5c1.3-3.6 4.6-6 8.4-6 4.8 0 8.6 4 8.6 8.8zm-33.1 0c0-7.8-6.4-14.2-14.2-14.2-7.8 0-14.2 6.4-14.2 14.2 0 7.8 6.4 14.2 14.2 14.2 7.8 0 14.2-6.4 14.2-14.2z"/>
			</g>
		</g>
	</g>
	<text id="Created by Alice Design" style="transform: matrix(1,0,0,1,-2,113)" >
		<tspan x="0" y="0" class="t1">Created by Alice Design
</tspan>
	</text>
	<text id="from the Noun Project" style="opacity: .1;transform: matrix(1,0,0,1,-2,118)" >
		<tspan x="0" y="0" class="t1">from the Noun Project
</tspan>
	</text>
</svg>