<svg version="1.2" xmlns="http://www.w3.org/2000/svg" viewBox="0 0 319 303" width="319" height="303">
	<title>file-svg</title>
	<style>
		tspan { white-space:pre } 
		.s0 { fill: #7492ea } 
		.t1 { font-size: 5px;fill: #000000;font-family: "' Helvetica  Neue'" } 
	</style>
	<g id="Layer">
		<path id="Layer" fill-rule="evenodd" class="s0" d="m102.9 2.4q5.6 0 10.6 2 4.9 2 9 5.9l20.2 19.3q2.2 2.2 4.8 3.2 2.5 1 5.6 1h113.6c7.8 0 14.9 3.2 20.1 8.3v0.1c5.1 5.1 8.3 12.2 8.3 20v107.1c0 7.8-3.2 14.9-8.3 20-5.2 5.2-12.3 8.4-20.1 8.4h-100.4v52.1h44.2c3.7 0 6.7 2.9 6.7 6.6v12.3h93.3c3.7 0 6.7 3 6.7 6.7 0 3.6-3 6.6-6.7 6.6h-93.3v12.3c0 3.7-3 6.7-6.7 6.7h-101.7c-3.7 0-6.7-3-6.7-6.7v-12.3h-93.3c-3.7 0-6.7-2.9-6.7-6.6 0-3.7 3-6.7 6.7-6.7h93.3v-12.3c0-3.6 3-6.6 6.7-6.6h44.2v-52.1h-100.4c-7.8 0-14.9-3.2-20.1-8.4-5.1-5.1-8.3-12.2-8.3-20v-138.5c0-7.8 3.2-14.9 8.3-20.1 5.1-5.1 12.2-8.3 20.1-8.3zm100.9 260.7h-88.3v24.5h88.3zm-100.9-247.4h-50.3c-4.2 0-7.9 1.7-10.7 4.5-2.7 2.7-4.4 6.5-4.4 10.6v138.5c0 4.2 1.7 7.9 4.4 10.7 2.7 2.7 6.5 4.4 10.7 4.4h214.1c4.2 0 8-1.7 10.7-4.4 2.7-2.8 4.4-6.5 4.4-10.7v-107.1c0-4.1-1.7-7.9-4.4-10.6-2.7-2.8-6.5-4.5-10.7-4.5h-113.6q-5.6 0-10.5-2-5-1.9-9.1-5.9l-20.2-19.3q-2.2-2.1-4.8-3.2-2.5-1-5.6-1z"/>
	</g>
	<text id="Created by Lusi Astianah" style="transform: matrix(1,0,0,1,-7,333.33)" >
		<tspan x="0" y="0" class="t1">Created by Lusi Astianah
</tspan>
	</text>
	<text id="from the Noun Project" style="transform: matrix(1,0,0,1,-7,338.33)" >
		<tspan x="0" y="0" class="t1">from the Noun Project
</tspan>
	</text>
</svg>