<svg xmlns="http://www.w3.org/2000/svg" xmlns:xlink="http://www.w3.org/1999/xlink" fill="#6c93f1" version="1.1" x="0px" y="0px" viewBox="0 0 128 160" style="enable-background:new 0 0 128 128;" xml:space="preserve"><g><path d="M52,92.5v-35c0-1.7-1.3-3-3-3s-3,1.3-3,3v33.8l-8.4,8.4c-1.4-0.7-3-1.1-4.6-1.1c-5.5,0-10,4.5-10,10s4.5,10,10,10   s10-4.5,10-10c0-1.7-0.4-3.2-1.1-4.6l9.3-9.3C51.7,94.1,52,93.3,52,92.5z M33,112.5c-2.2,0-4-1.8-4-4s1.8-4,4-4s4,1.8,4,4   S35.2,112.5,33,112.5z"/><path d="M79,54.5c-1.7,0-3,1.3-3,3v35c0,0.8,0.3,1.6,0.9,2.1l9.3,9.3c-0.7,1.4-1.1,3-1.1,4.6c0,5.5,4.5,10,10,10s10-4.5,10-10   s-4.5-10-10-10c-1.7,0-3.2,0.4-4.6,1.1L82,91.3V57.5C82,55.8,80.7,54.5,79,54.5z M95,104.5c2.2,0,4,1.8,4,4s-1.8,4-4,4s-4-1.8-4-4   S92.8,104.5,95,104.5z"/><path d="M64,43.5c-1.7,0-3,1.3-3,3V108c-4.1,1.3-7,5.1-7,9.5c0,5.5,4.5,10,10,10s10-4.5,10-10c0-4.5-2.9-8.3-7-9.5V46.5   C67,44.8,65.7,43.5,64,43.5z M68,117.5c0,2.2-1.8,4-4,4s-4-1.8-4-4s1.8-4,4-4S68,115.3,68,117.5z"/><path d="M109,92.5c5.5,0,10-4.5,10-10s-4.5-10-10-10c-1.7,0-3.2,0.4-4.6,1.1l-9.3-9.3c-1.2-1.2-3.1-1.2-4.2,0   c-1.2,1.2-1.2,3.1,0,4.2l9.3,9.3c-0.7,1.4-1.1,3-1.1,4.6C99,88,103.5,92.5,109,92.5z M109,78.5c2.2,0,4,1.8,4,4s-1.8,4-4,4   s-4-1.8-4-4S106.8,78.5,109,78.5z"/><path d="M32.9,64.4l-9.3,9.3c-1.4-0.7-3-1.1-4.6-1.1c-5.5,0-10,4.5-10,10s4.5,10,10,10s10-4.5,10-10c0-1.7-0.4-3.2-1.1-4.6l9.3-9.3   c1.2-1.2,1.2-3.1,0-4.2C36,63.2,34,63.2,32.9,64.4z M19,86.5c-2.2,0-4-1.8-4-4s1.8-4,4-4s4,1.8,4,4S21.2,86.5,19,86.5z"/><path d="M114,1H14C6.8,1,1,6.8,1,14v14v23c0,1.7,1.3,3,3,3s3-1.3,3-3V35h114v16c0,1.7,1.3,3,3,3s3-1.3,3-3V14   C127,6.8,121.2,1,114,1z M121,29H7V14c0-3.9,3.1-7,7-7h100c3.9,0,7,3.1,7,7V29z"/><path d="M22,15h-4c-1.7,0-3,1.3-3,3s1.3,3,3,3h4c1.7,0,3-1.3,3-3S23.7,15,22,15z"/><path d="M38,15h-4c-1.7,0-3,1.3-3,3s1.3,3,3,3h4c1.7,0,3-1.3,3-3S39.7,15,38,15z"/></g></svg>