<svg version="1.2" xmlns="http://www.w3.org/2000/svg" viewBox="0 0 30 24" width="300" height="240">
	<title>privacy-svg</title>
	<style>
		tspan { white-space:pre } 
		.s0 { fill: #6c93f1 } 
		.t1 { font-size: 5px;fill: #000000;font-family: "' Helvetica  Neue'" } 
	</style>
	<path id="Layer" fill-rule="evenodd" class="s0" d="m1.3 1.1c0.4-0.5 1.1-0.8 1.8-0.8 5.1 0 18.7 0 23.8 0 0.7 0 1.4 0.3 1.8 0.8 0.5 0.4 0.8 1.1 0.8 1.8v18.2c0 0.7-0.3 1.4-0.8 1.8-0.4 0.5-1.1 0.8-1.8 0.8-5.1 0-18.7 0-23.8 0-0.7 0-1.4-0.3-1.8-0.8-0.5-0.4-0.8-1.1-0.8-1.8v-18.2c0-0.7 0.3-1.4 0.8-1.8zm0.2 4.7v15.3c0 0.5 0.2 0.8 0.5 1.1 0.3 0.3 0.6 0.5 1.1 0.5h23.8c0.4 0 0.8-0.2 1.1-0.5 0.3-0.3 0.5-0.6 0.5-1.1v-15.3zm16.6 9.9c1.3 0 2.3 1 2.3 2.3 0 1.2-1 2.3-2.3 2.3-1.1 0-2-0.8-2.2-1.8h-1.8c-0.2 1-1.1 1.8-2.2 1.8-1.3 0-2.3-1.1-2.3-2.3 0-1.3 1-2.3 2.3-2.3 1.1 0 2 0.8 2.2 1.8h1.8c0.2-1 1.1-1.8 2.2-1.8zm-7.5 2.3c0 0.7 0.6 1.3 1.3 1.3 0.7 0 1.3-0.6 1.3-1.3 0-0.7-0.6-1.3-1.3-1.3-0.7 0-1.3 0.6-1.3 1.3zm6.2 0c0 0.7 0.6 1.3 1.3 1.3 0.7 0 1.3-0.6 1.3-1.3 0-0.7-0.6-1.3-1.3-1.3-0.7 0-1.3 0.6-1.3 1.3zm-6.8-9.8c0-0.2 0.2-0.5 0.5-0.5h9c0.3 0 0.5 0.3 0.5 0.5v5.5h1c0.3 0 0.5 0.3 0.5 0.5 0 0.3-0.2 0.5-0.5 0.5h-12c-0.3 0-0.5-0.2-0.5-0.5 0-0.2 0.2-0.5 0.5-0.5h1zm9 0.5h-8v5h8zm9.5-5.8c0-0.4-0.2-0.8-0.5-1.1-0.3-0.3-0.7-0.5-1.1-0.5h-23.8c-0.5 0-0.8 0.2-1.1 0.5-0.3 0.3-0.5 0.7-0.5 1.1v1.9h27zm-1.4 0.2c0 0.5-0.4 0.9-0.9 0.9-0.5 0-0.9-0.4-0.9-0.9 0-0.5 0.4-0.9 0.9-0.9 0.5 0 0.9 0.4 0.9 0.9zm-3.4 0c0 0.5-0.4 0.9-0.9 0.9-0.5 0-0.9-0.4-0.9-0.9 0-0.5 0.4-0.9 0.9-0.9 0.5 0 0.9 0.4 0.9 0.9zm-3.3 0c0 0.5-0.4 0.9-0.9 0.9-0.5 0-0.9-0.4-0.9-0.9 0-0.5 0.4-0.9 0.9-0.9 0.5 0 0.9 0.4 0.9 0.9z"/>
	<text id="Created by Firza Alamsyah" style="transform: matrix(1,0,0,1,-1,43)" >
		<tspan x="0" y="0" class="t1">Created by Firza Alamsyah
</tspan>
	</text>
	<text id="from the Noun Project" style="transform: matrix(1,0,0,1,-1,48)" >
		<tspan x="0" y="0" class="t1">from the Noun Project
</tspan>
	</text>
</svg>