<svg version="1.2" xmlns="http://www.w3.org/2000/svg" viewBox="0 0 32 32" width="100" height="100">
	<title>security-svg</title>
	<style>
		tspan { white-space:pre } 
		.s0 { fill: #fff } 
		.t1 { font-size: 5px;fill: #000000;font-family: "' Helvetica  Neue'" } 
	</style>
	<g id="Layer 2">
		<path id="Layer" fill-rule="evenodd" class="s0" d="m25.9 5.9q0.3 0.1 0.6 0.4 0.2 0.3 0.4 0.6 0.1 0.4 0.1 0.8v8.3q0 1.4-0.3 2.7-0.3 1.3-0.9 2.5-0.6 1.2-1.4 2.3-0.8 1-1.9 1.9l-5.2 4.2q-0.3 0.2-0.6 0.3-0.4 0.1-0.7 0.1-0.3 0-0.7-0.1-0.3-0.1-0.5-0.3l-5.3-4.2q-1.1-0.9-1.9-1.9-0.8-1.1-1.4-2.3-0.6-1.2-0.9-2.5-0.3-1.3-0.3-2.7v-8.3q0-0.4 0.1-0.8 0.2-0.3 0.4-0.6 0.3-0.3 0.6-0.4 0.3-0.2 0.7-0.2 0.5-0.1 1-0.1 0.5-0.1 1-0.2 0.4-0.2 0.9-0.3 0.5-0.1 1-0.3 0.5-0.2 1-0.5 0.6-0.2 1.1-0.5 0.5-0.3 1-0.6 0.5-0.4 1-0.7 0.2-0.3 0.5-0.4 0.4-0.1 0.7-0.1 0.3 0 0.7 0.1 0.3 0.1 0.5 0.4 0.5 0.3 1 0.7 0.5 0.3 1 0.6 0.5 0.3 1.1 0.5 0.5 0.3 1.1 0.5 0.4 0.2 0.9 0.3 0.5 0.1 0.9 0.3 0.5 0.1 1 0.2 0.5 0 1 0.1 0.4 0 0.7 0.2zm-3.9 6.1q0-0.4-0.3-0.7-0.3-0.3-0.7-0.3-0.4 0-0.7 0.3l-5.3 5.3-3.3-3.3q-0.3-0.3-0.7-0.3-0.4 0-0.7 0.3-0.3 0.3-0.3 0.7 0 0.4 0.3 0.7l4 4q0.1 0.2 0.3 0.2 0.2 0.1 0.4 0.1 0.2 0 0.4-0.1 0.2 0 0.3-0.2l6-6q0.3-0.3 0.3-0.7z"/>
	</g>
	<text id="Created by Enjang Solehudin" style="transform: matrix(1,0,0,1,0,47)" >
		<tspan x="0" y="0" class="t1">Created by Enjang Solehudin
</tspan>
	</text>
	<text id="from the Noun Project" style="transform: matrix(1,0,0,1,0,52)" >
		<tspan x="0" y="0" class="t1">from the Noun Project
</tspan>
	</text>
</svg>